# xmcd
#
# Track frame offsets: 
#        150
#        11085
#        22970
#        32505
#        45000
#        61500
#        72500
#        86060
#        96485
#        108990
#        120755
#        133590
#        145565
#        155915
#        167105
#        179565
#        189925
#        202810
#        214100
#        224385
#
# Disc length: 3125 seconds
#
# Revision: 5
# Processed by: cddbd v1.5.1PL0 Copyright (c) Steve Scherf et al.
# Submitted via: ExactAudioCopy v0.95a5
#
DISCID=0b0c3314
DTITLE=Various Artist - Country Gold
DYEAR=1900
DGENRE=Country
TTITLE0=Patsy Cline - Stop The World (And Let Me Off)
TTITLE1=Faron Young - I Heard The Jukebox Playing
TTITLE2=Johnny Cash - Rock Island Line
TTITLE3=Lester Flatt and Earl Scruggs - Doin' My Time
TTITLE4=Roger Miller - Honey
TTITLE5=Johnny Paycheck - Heartbreak, Tennessee
TTITLE6=Tillman Frank Singers - Your Cheatin' Heart
TTITLE7=Jerry Smith - Misty Blue (instrumental)
TTITLE8=Ferlin Husky - The Letter You Promised To Write
TTITLE9=Johnny Cash - You're The Nearest Thing To Heaven
TTITLE10=Jerry Wallace - Shutters And Boards
TTITLE11=Conway Twitty - Crazy Dreams
TTITLE12=Glen Campbell - Walk Right In (instrumental)
TTITLE13=Jeannie C. Riley - Box Of Memories
TTITLE14=Charlie Rich - My Heart Cries For You
TTITLE15=Johnny Cash - Train Of Love
TTITLE16=George Jones - I Love You Because
TTITLE17=David Houston - Miss Brown
TTITLE18=Jan Howard - I Wish I Could Fall In Love Again
TTITLE19=Dave Dudley - Oh Lonesome Me
EXTD=
EXTT0=
EXTT1=
EXTT2=
EXTT3=
EXTT4=
EXTT5=
EXTT6=
EXTT7=
EXTT8=
EXTT9=
EXTT10=
EXTT11=
EXTT12=
EXTT13=
EXTT14=
EXTT15=
EXTT16=
EXTT17=
EXTT18=
EXTT19=
PLAYORDER=
